<?xml version="1.0" encoding="UTF-8"?>
<svg xmlns="http://www.w3.org/2000/svg" xmlns:xlink="http://www.w3.org/1999/xlink" width="34.45pt" height="45.69pt" viewBox="0 0 34.45 45.69" version="1.1">
<defs>
<clipPath id="clip1">
  <path d="M 0 5 L 32 5 L 32 45.691406 L 0 45.691406 Z M 0 5 "/>
</clipPath>
<clipPath id="clip2">
  <path d="M 16 0 L 34.449219 0 L 34.449219 11 L 16 11 Z M 16 0 "/>
</clipPath>
</defs>
<g id="surface1">
<path style=" stroke:none;fill-rule:evenodd;fill:rgb(100%,100%,39.99939%);fill-opacity:1;" d="M 15.917969 44.632813 C 23.722656 44.632813 30.085938 38.269531 30.085938 30.46875 C 30.085938 22.664063 23.722656 16.304688 15.917969 16.304688 C 8.117188 16.304688 1.753906 22.664063 1.753906 30.46875 C 1.753906 38.269531 8.117188 44.632813 15.917969 44.632813 "/>
<g clip-path="url(#clip1)" clip-rule="nonzero">
<path style=" stroke:none;fill-rule:evenodd;fill:rgb(79.998779%,39.99939%,19.999695%);fill-opacity:1;" d="M 15.714844 14.261719 C 16.027344 14.261719 16.277344 14.515625 16.277344 14.828125 C 16.277344 15.140625 16.027344 15.394531 15.714844 15.394531 C 11.6875 15.394531 8.039063 17.027344 5.402344 19.664063 C 2.761719 22.304688 1.128906 25.949219 1.128906 29.976563 C 1.128906 34.003906 2.761719 37.648438 5.402344 40.285156 C 8.039063 42.925781 11.6875 44.558594 15.714844 44.558594 C 19.738281 44.558594 23.386719 42.925781 26.023438 40.285156 C 28.664063 37.648438 30.296875 34.003906 30.296875 29.976563 C 30.296875 26.863281 29.320313 23.976563 27.660156 21.609375 C 25.949219 19.171875 23.515625 17.28125 20.671875 16.253906 C 20.550781 16.210938 20.402344 16.160156 20.230469 16.105469 C 12.46875 13.582031 22.140625 6.574219 27.578125 5.988281 C 26.765625 6.625 13.195313 12.632813 20.578125 15.03125 C 20.714844 15.074219 20.871094 15.128906 21.050781 15.195313 C 24.117188 16.304688 26.742188 18.335938 28.582031 20.960938 C 30.375 23.515625 31.425781 26.621094 31.425781 29.976563 C 31.425781 34.316406 29.667969 38.242188 26.824219 41.085938 C 23.980469 43.929688 20.050781 45.691406 15.714844 45.691406 C 11.375 45.691406 7.445313 43.929688 4.601563 41.085938 C 1.757813 38.242188 0 34.316406 0 29.976563 C 0 25.636719 1.757813 21.707031 4.601563 18.867188 C 7.445313 16.023438 11.375 14.261719 15.714844 14.261719 "/>
</g>
<path style=" stroke:none;fill-rule:evenodd;fill:rgb(59.999084%,79.998779%,19.999695%);fill-opacity:1;" d="M 21.035156 12.128906 C 20.730469 12.066406 20.535156 11.765625 20.597656 11.464844 C 20.660156 11.15625 20.960938 10.960938 21.265625 11.023438 C 28.328125 12.492188 28.378906 6.722656 33.382813 3.152344 C 30.109375 6.476563 29.476563 13.65625 21.035156 12.128906 "/>
<g clip-path="url(#clip2)" clip-rule="nonzero">
<path style=" stroke:none;fill-rule:evenodd;fill:rgb(59.999084%,79.998779%,19.999695%);fill-opacity:1;" d="M 17.9375 9.992188 C 17.953125 10.300781 17.710938 10.5625 17.398438 10.578125 C 17.089844 10.59375 16.828125 10.347656 16.8125 10.039063 C 16.222656 -2.699219 33.171875 4.164063 34.449219 -0.00390625 C 33.890625 5.894531 17.410156 -1.472656 17.9375 9.992188 "/>
</g>
<path style=" stroke:none;fill-rule:evenodd;fill:rgb(100%,79.998779%,0%);fill-opacity:1;" d="M 19.722656 18.632813 C 24.976563 20.304688 28.78125 25.21875 28.78125 31.027344 C 28.78125 38.207031 22.957031 44.027344 15.777344 44.027344 C 12.738281 44.027344 9.945313 42.988281 7.730469 41.238281 C 8.976563 41.636719 10.300781 41.851563 11.675781 41.851563 C 18.859375 41.851563 24.679688 36.027344 24.679688 28.847656 C 24.679688 24.703125 22.746094 21.011719 19.722656 18.632813 "/>
<path style=" stroke:none;fill-rule:evenodd;fill:rgb(59.999084%,79.998779%,19.999695%);fill-opacity:1;" d="M 14.609375 12.230469 C 14.765625 12.199219 14.867188 12.042969 14.835938 11.886719 C 14.800781 11.730469 14.648438 11.628906 14.492188 11.660156 C 10.84375 12.417969 10.816406 9.4375 8.234375 7.59375 C 9.921875 9.3125 10.25 13.019531 14.609375 12.230469 "/>
<path style=" stroke:none;fill-rule:evenodd;fill:rgb(59.999084%,79.998779%,19.999695%);fill-opacity:1;" d="M 16.210938 11.128906 C 16.203125 11.285156 16.324219 11.421875 16.488281 11.429688 C 16.648438 11.4375 16.78125 11.3125 16.789063 11.152344 C 17.09375 4.574219 8.34375 8.117188 7.683594 5.964844 C 7.96875 9.011719 16.480469 5.207031 16.210938 11.128906 "/>
</g>
</svg>
